<svg version="1.1" viewBox="0 0 638 835" xmlns="http://www.w3.org/2000/svg">
 <path transform="translate(610,54)" d="m0 0c27 46 24 106-8 148-13 14-31 31-51 31 1 2 3 5 4 8 4 8 4 8 3 15-5 2-11 1-16 1v186h9c19 6 32 19 37 39 1 27-8 44-33 55-4 1-9 1-13 2v5 20 8 6 7c0 5 0 5-3 9-5 0-5 0-8-5v-15c0-9 0-18-1-27-1 1-2 3-2 4-9 12-18 21-31 27v5 49 18 26 8 8 7c-1 5-1 5-5 8h-23-7-21-15-36v62c5 0 11-1 16-1h13c0-2 1-3 1-5 16-24 39-34 68-28 23 7 38 25 42 49v20 5c0 14 0 14-4 16h-20-6-20-14-30-38-29-14-19-6c-14 0-14 0-18-3v-11-7-7-8-25-16-41h-18v4 44 16 24c1 2 1 5 1 7v7 6c-1 5-1 5-6 10-7 0-13 1-20 1h-6-20-14c-10 0-20 0-30-1h-38-29-14-19-6c-14 0-14 0-17-2v-19-6c0-29 11-50 38-62 25-8 50 0 67 20 4 6 4 6 7 12h28v-8c-1-10-1-21-1-31v-5c0-14 0-14 1-17h-9-35-15-21-7c-16 0-16 0-20-4-1-5-1-5-1-12v-7-8-7-19c-2 0-3 0-5 1-5 0-5 0-9-1v8 10 5c0 13 0 13-2 16h-18-10c-27-1-44-15-53-40-4-20 2-38 16-53-1-2-1-3-2-5v-10-5c0-7 2-9 8-13h8v-8c0-41 23-75 60-91 6-2 6-2 8-2v-6-7-7c0-6 0-6 2-9 5 0 11-1 16-1h9c7 0 7 0 9 1-1-2-2-4-3-7-2-6-5-12-7-18-2-5-5-10-7-16-7-16-7-16-3-20h16c5 0 5 0 9-1h11 10 25c-1-2-3-5-4-7-17-32-20-76-1-108 3-9 3-14 4-22v-9-11-13c1-19 1-37 1-55v-23c1-3 1-5 1-8 0-10 0-21 1-31-3 0-6-1-9-1-13-6-19-16-19-31 3-14 11-22 24-26 15-1 26 5 33 19 3 12 2 18-4 29 4 4 7 8 12 12 4 4 7 8 11 11 6 7 6 7 13 13 1 1 2 3 3 4l8 8c5 4 5 4 8 7 9 10 18 19 27 28 2 3 5 5 7 8l11 11c2 2 4 4 6 7 8 5 13 8 22 10 50 23 79 70 76 125-2 19-8 36-17 53h6 24 10 14 9c7 1 7 1 10 5-2 7-5 13-7 20l-3 6c0 2-1 4-2 6l-3 6c-6 16-6 16-7 18h7 8 9c7 0 7 0 11 3 0 3 1 5 1 8 1-1 2-2 3-4 8-8 18-13 30-11 0-56 1-112 1-170-5 0-10-1-15-1-5-8 2-17 6-24-2 0-3-1-5-1-45-13-67-56-72-100-1-50 17-96 64-118 41-15 78 6 101 40z"/>
 <path transform="translate(349.81 203.12)" d="m0 0c13 6 24 14 34 24 2 2 2 2 4 3 34 38 38 88 16 133-26 44-73 66-124 57-48-10-84-49-91-98-2-25 0-51 14-72 7-2 7-2 14-2 2 0 5-1 7-1h7c5-1 5-1 9-1-4 4-4 4-10 9-8 11-7 23-7 37v23h48l2 12c8 18 19 23 38 22 17-7 22-17 23-34h49v-22-8-5-6c-2-16-11-24-26-30-17-1-29 4-38 20-2 6-2 10-2 16-1 5-1 5-1 10-2 0-4-1-6-1-10 0-10 0-21 2v-5c0-18-3-32-21-41-6-1-6-1-14-2 5-2 9-4 14-6 28-10 55-45 82-34z" fill="#fff"/>
 <path transform="translate(598.69 54.188)" d="m0 0c26 46 28 102-7 144-21 23-49 33-80 23-45-22-59-68-57-115 5-38 27-72 63-85 33-7 62 6 81 33z" fill="#E13D3B"/>
 <path transform="translate(161,456)" d="m0 0c6 1 10 4 16 7 3 1 3 1 6 3 89 48 27 17 27 231h-49v-241z" fill="#E13B3A"/>
 <path transform="translate(444,456)" d="m0 0v241h-49c0-216 0-216 25-229 6-3 12-7 18-10 4-2 4-2 6-2z" fill="#E13A3A"/>
 <path transform="translate(233.36 98.094)" d="m0 0 46 46c11 11 11 11 11 13h2c1 2 3 3 5 5l6 6c5 5 9 10 14 15 2 2 4 5 7 7-18 36-84 51-119 51v-32-10-16-9c0-8 0-8 1-16v-18-5-16-10c0-9 1-18 1-27 12-4 18 8 26 16z" fill="#2186C9"/>
 <path transform="translate(277,501)" d="m0 0h52v196h-52v-196z" fill="#F4D13E"/>
 <path transform="translate(219,487)" d="m0 0c5 2 5 2 9 5 2 1 4 2 5 3 3 1 3 1 5 3 9 3 9 3 29 3v196h-48v-210z" fill="#1F88C7"/>
 <path transform="translate(386,487)" d="m0 0v210h-48v-196c8 0 15-1 23-1 7-3 7-3 13-7l6-3c5-3 5-3 6-3z" fill="#1F88C7"/>
 <path transform="translate(487,442)" d="m0 0v255h-34v-97-45-43-16-23-7-7-5c1-21 10-12 34-12z" fill="#2286C5"/>
 <path transform="translate(119,442)" d="m0 0c31 0 31 0 33 5v10 6 8 7 24 17 44 45 89h-33v-255z" fill="#2188C7"/>
 <path transform="translate(265.19 337.25)" d="m0 0c18 18 37 20 60 12 6-4 10-7 15-12 12-10 20-12 35-5 9 9 12 19 7 31-23 32-64 48-102 39-24-7-47-20-58-43-1-14 1-20 12-29 12-5 22-2 31 7z" fill="#DB3939"/>
 <path transform="translate(67.5 597.19)" d="m0 0h8c22-1 22-1 30 13l3 6c3 8 4 14-1 22-4 3-4 3-10 3-6-4-6-4-8-7-1 0-3 0-4 1-1 14-1 29-2 44-26 0-50 0-62-28-5-22 0-38 18-52 7-4 20-2 28-2z" fill="#fff"/>
 <path transform="translate(110,472)" d="m0 0v30c0 2 0 5 1 8v8 8c-1 6-1 6-7 13-4 8-7 15-9 24h-44c0-32 16-91 59-91z" fill="#2086C4"/>
 <path transform="translate(566.25 460.88)" d="m0 0c13 14 15 29 9 47-10 15-21 22-39 20-18-8-19-21-19-38v-5c0-29 25-42 49-24z" fill="#fff"/>
 <path transform="translate(265.19 337.25)" d="m0 0c18 18 37 20 60 12 6-4 10-7 15-12 12-10 20-12 35-5 9 9 12 19 7 31-23 32-64 48-102 39-24-7-47-20-58-43-1-14 1-20 12-29 12-5 22-2 31 7zm-34 9c0 24 21 35 41 44 37 12 73 1 99-27 5-10 6-13 0-22-7-5-7-4-16-4-4 3-4 3-8 7-22 19-46 24-73 12-6-4-10-8-15-12-10-9-20-11-28 2z"/>
 <path transform="translate(304,437)" d="m0 0c3 4 6 7 9 11 2 2 4 5 7 7 5 7 10 13 15 19 1 1 2 3 3 4 10 12 10 12 10 14h-91c4-7 9-12 14-18 2-2 2-2 4-5 5-6 11-13 16-19 3-4 6-7 9-11 2-2 2-2 4-2z" fill="#F2CF3E"/>
 <path transform="translate(230,418)" d="m0 0c8 41 8 41 10 62 0 1 1 1 1 2v6c-12-6-23-12-35-18-10-5-20-11-29-16s-9-5-9-7c1-1 3-1 4-2 57-27 57-27 58-27z" fill="#DE3A39"/>
 <path transform="translate(375,418)" d="m0 0c8 3 15 6 23 10 13 6 26 13 39 19-2 5-7 6-11 8-8 5-16 9-24 13-35 20-35 20-37 20 1-11 2-22 4-33 0-2 1-4 1-6 2-13 2-13 3-15 1-5 1-11 2-16z" fill="#DF3939"/>
 <path transform="translate(321,804)" d="m0 0h200v11h-200v-11z" fill="#fff"/>
 <path transform="translate(85,804)" d="m0 0h199v11h-199v-11z" fill="#fff"/>
 <path transform="translate(366,413)" d="m0 0c2 6-0 11-1 17l-6 39c-1 3-1 6-2 10 0 2-1 5-1 7-5-5-5-5-10-12-5-6-10-11-15-17-3-4-6-7-9-11-2-2-4-5-6-7-5-6-5-6-6-9 5-1 5-1 10-1 17-2 31-8 46-16z" fill="#1F86C4"/>
 <path transform="translate(239,414)" d="m0 0c4 2 8 3 12 5 15 6 28 10 44 11-2 5-5 8-8 12-2 1-3 3-4 5-3 3-7 7-10 11-5 6-11 13-16 20-2 2-4 5-6 7-4-4-3-10-4-14-1-3-1-6-1-8l-2-8c0-6-1-11-2-16-1-4-1-4-1-7-1-4-1-7-2-11v-7z" fill="#1F86C5"/>
 <path transform="translate(323,308)" d="m0 0c4 13 2 22-9 31-14 5-22 2-31-9-4-10-3-17 3-26 14-10 25-10 37 4z" fill="#E13A39"/>
 <path transform="translate(364,256)" d="m0 0c11 10 10 18 10 33v10 7h-18c1-2 2-3 2-5 5-11 4-19-1-30-5-5-5-5-12-3-9 12-8 25-2 38-11 1-11 1-17-8-1-7-1-7-1-15v-8c2-21 22-28 39-19z" fill="#fff"/>
 <path transform="translate(270,256)" d="m0 0c10 10 10 15 10 28v8c0 6 0 6-4 11 0 1-1 2-1 3h-12c1-2 1-3 2-5 3-12 4-22-3-32-4-2-4-2-9-2-10 10-10 22-6 35 1 1 1 3 2 4h-17v-18-5c-1-24 15-38 38-27z" fill="#fff"/>
 <path transform="translate(418,381)" d="m0 0h52c-1 7-4 13-7 20-5 12-9 24-14 36-4-4-7-9-9-15-6-10-12-21-18-32-2-4-2-4-4-9z" fill="#F1CE3B"/>
 <path transform="translate(135,381)" d="m0 0h52c-3 10-9 19-14 29-2 3-2 3-3 6l-6 12c-3 4-3 4-7 8-4-9-8-19-12-29-2-4-2-4-4-9-2-6-4-11-6-17z" fill="#F1CE3A"/>
 <path transform="translate(532,441)" d="m0 0c0 4 0 4-4 6-17 10-18 24-18 42 0 2-1 4-1 6 0 18 4 30 21 39-2 2-2 2-12 2-21-12-22-25-22-47-1-3-1-5-1-7 0-16 13-59 37-41z" fill="#fff"/>
 <path transform="translate(408,381)" d="m0 0c1 2 2 4 4 7 1 3 3 6 4 9 1 1 2 3 3 4 4 9 9 18 14 26 5 9 5 9 4 11-2-1-5-2-7-4-18-8-35-17-53-25 0-6 7-9 11-13h2c1-1 1-3 2-4 3-3 5-6 8-9 1-2 1-2 8-2z" fill="#2084C3"/>
 <path transform="translate(204,381)" d="m0 0c4 4 7 9 11 13 4 3 7 7 11 10l4 4c-7 3-13 7-20 10-3 1-3 1-5 3-12 6-25 12-37 17 2-6 5-12 8-18 2-3 2-3 4-7 1-2 3-5 4-7 2-5 5-9 7-14 6-11 6-11 13-11z" fill="#2186C4"/>
 <path transform="translate(249,348)" d="m0 0c3 3 5 6 8 9 24 19 51 22 79 9 8-5 15-11 21-19 6 1 6 1 7 2 0 15-21 25-33 30-28 9-55 6-78-13-1-1-3-2-4-4-8-7-8-7-7-13 2-2 2-2 7-1z"/>
 <path transform="translate(50.562 571.73)" d="m0 0h9 9 10 9 8c6 0 6 0 8 2 1 14 1 14-2 16-4 0-9 1-14 1h-9-10-9-9-8c-7-1-7-1-9-3 0-16 1-16 17-16z" fill="#fff"/>
 <path transform="translate(213,40)" d="m0 0c6 7 7 13 6 22-7 10-13 14-25 13-12-7-14-10-14-24 7-16 18-18 33-11z" fill="#F2CF3F"/>
 <path transform="translate(506,50)" d="m0 0c1 2 3 4 4 6-2 2-4 3-5 5-18 16-23 34-26 57h-10c-1-14 15-79 37-68z" fill="#fff"/>
 <path transform="translate(322,706)" d="m0 0h59v11h-59v-11z" fill="#1F7FBD"/>
 <path transform="translate(225,706)" d="m0 0h59v11h-59v-11z" fill="#1F7FBD"/>
 <path transform="translate(246,126)" d="m0 0c6 8 5 11 0 19-8 4-11 4-19-1-5-8-4-12 1-19 6-4 12-3 18 1z" fill="#fff"/>
 <path transform="translate(266,188)" d="m0 0c4 8 3 13-3 20-7 4-12 1-18-3-4-9-3-12 4-20 7-3 11 0 17 3z" fill="#fff"/>
 <path transform="translate(496,530)" d="m0 0c2 2 5 4 7 6 5 4 10 6 16 9-5 9-13 18-23 22v-37z" fill="#1F85C6"/>
 <path transform="translate(318,188)" d="m0 0 4 6c-6 6-12 11-19 16-7-6-7-7-7-16 6-10 12-11 22-6z" fill="#fff"/>
 <path transform="translate(215,167)" d="m0 0c8 4 10 7 10 16-6 9-7 9-18 9-2-2-1-10-1-13v-6c0-6 0-6 9-6z" fill="#fff"/>
 <path transform="translate(227,222)" d="m0 0c8 7 8 7 8 16-8 1-16 2-25 2-3-6-1-10 3-15 4-3 4-3 14-3z" fill="#fff"/>
 <path transform="translate(282.81 147.25)" d="m0 0c6 7 6 7 5 13-9 5-10 5-19 0-3-4-3-4-3-14 7-10 8-7 17 1z" fill="#fff"/>
 <path transform="translate(223,88)" d="m0 0c2 7 1 10-3 16-4 2-4 2-13 2v-24c9-3 9-1 16 6z" fill="#fff"/>
 <path transform="translate(225,757)" d="m0 0h25v11h-25v-11z" fill="#E6E6E6"/>
 <path transform="translate(356,758)" d="m0 0h25v10h-25v-10z" fill="#fff"/>
 <path transform="translate(356,738)" d="m0 0h25v10h-25v-10z" fill="#fff"/>
 <path transform="translate(225,738)" d="m0 0h25v10h-25v-10z" fill="#fff"/>
 <path transform="translate(219,487)" d="m0 0 4 2-2 2v19 6 20 14c-1 12-1 24-1 37v37 73h-1v-210z" fill="#1A77AD"/>
 <path transform="translate(540,234)" d="m0 0c2 5 5 9 7 14h-20c3-14 3-14 13-14z" fill="#D2393A"/>
 <path transform="translate(219,487)" d="m0 0 4 2-2 2v19 6c-1 6-1 12-1 18v13 30h-1v-90z" fill="#1D7FB7"/>
 <path transform="translate(110,547)" d="m0 0v20c-6-3-6-3-5-12 4-8 4-8 5-8z" fill="#D1D3D6"/>
 <path transform="translate(533,544)" d="m0 0v48c-4-5-2-12-2-18 0-10 0-19-1-29 1-1 1-1 3-1z" fill="#676768"/>
 <path transform="translate(145,431)" d="m0 0c0 1 0 1 1 3h-7-9c-5 0-5 0-10 1-7-1-7-1-9 2 0 4 0 8-1 13v7 5h-1v-13-7c0-6 0-6 2-9 5 0 11-1 16-1h9c7 0 7 0 9 1v-2z" fill="#5F5F5F"/>
</svg>
